<?xml version="1.0" encoding="UTF-8" standalone="no" ?>
<!DOCTYPE svg PUBLIC "-//W3C//DTD SVG 1.1//EN" "http://www.w3.org/Graphics/SVG/1.1/DTD/svg11.dtd">
<svg xmlns="http://www.w3.org/2000/svg" xmlns:xlink="http://www.w3.org/1999/xlink" version="1.1" width="1080" height="1080" viewBox="0 0 1080 1080" xml:space="preserve">
<defs>
</defs>
<rect x="0" y="0" width="100%" height="100%" fill="transparent"></rect>
<g transform="matrix(1 0 0 1 540 540)" id="5eeff603-f4d0-4128-a092-ac05b4e043a0"  >
</g>
<g transform="matrix(1 0 0 1 540 540)" id="db49cba0-58c3-47bc-bf93-fbdfde9c4888"  >
<rect style="stroke: none; stroke-width: 1; stroke-dasharray: none; stroke-linecap: butt; stroke-dashoffset: 0; stroke-linejoin: miter; stroke-miterlimit: 4; fill: rgb(255,255,255); fill-rule: nonzero; opacity: 1; visibility: hidden;" vector-effect="non-scaling-stroke"  x="-540" y="-540" rx="0" ry="0" width="1080" height="1080" />
</g>
<g transform="matrix(16.88 0 0 18 541.56 540)"  >
<path style="stroke: none; stroke-width: 1; stroke-dasharray: none; stroke-linecap: butt; stroke-dashoffset: 0; stroke-linejoin: miter; stroke-miterlimit: 4; fill: rgb(0,0,0); fill-rule: nonzero; opacity: 1;" vector-effect="non-scaling-stroke"  transform=" translate(-30, -46.78)" d="M 0 0.78125 L 60 0.78125 L 60 80.3488 L 0 92.7812 L 0 0.78125 Z" stroke-linecap="round" />
</g>
<g transform="matrix(1 0 0 1 536.89 635.78)" style="" id="e98f41fe-9371-49be-b1e6-9c3939ddbf96"  >
		<text xml:space="preserve" font-family="Raleway" font-size="160" font-style="normal" font-weight="400" style="stroke: none; stroke-width: 1; stroke-dasharray: none; stroke-linecap: butt; stroke-dashoffset: 0; stroke-linejoin: miter; stroke-miterlimit: 4; fill: rgb(255,255,255); fill-rule: nonzero; opacity: 1; white-space: pre;" ><tspan x="-348.64" y="-121.5" >A</tspan><tspan x="-204.48" y="-121.5" >B</tspan><tspan x="-61.92" y="-121.5" >O</tspan><tspan x="94.24" y="-121.5" >U</tspan><tspan x="251.04" y="-121.5" >T</tspan><tspan x="-126.96" y="222.02" >U</tspan><tspan x="29.84" y="222.02" >S</tspan></text>
</g>
</svg>