<svg width="25" height="25" viewBox="0 0 25 25" fill="none" xmlns="http://www.w3.org/2000/svg">
<path d="M6.63086 8.10547H18.2349" stroke="black" stroke-width="1.3" stroke-linecap="round" stroke-linejoin="round"/>
<path d="M10.7749 11.4219V16.395" stroke="black" stroke-width="1.3" stroke-linecap="round" stroke-linejoin="round"/>
<path d="M14.0903 11.4219V16.395" stroke="black" stroke-width="1.3" stroke-linecap="round" stroke-linejoin="round"/>
<path d="M7.45947 8.10547L8.16992 17.3413C8.16992 17.7496 8.31962 18.1411 8.58609 18.4298C8.85256 18.7184 9.21397 18.8806 9.59082 18.8806H15.2744C15.6513 18.8806 16.0127 18.7184 16.2791 18.4298C16.5456 18.1411 16.6953 17.7496 16.6953 17.3413L17.4058 8.10547" stroke="black" stroke-width="1.3" stroke-linecap="round" stroke-linejoin="round"/>
<path d="M9.94629 8.10571V6.24078C9.94629 6.07591 10.0336 5.9178 10.1891 5.80122C10.3445 5.68463 10.5553 5.61914 10.7751 5.61914H14.0906C14.3104 5.61914 14.5212 5.68463 14.6767 5.80122C14.8321 5.9178 14.9194 6.07591 14.9194 6.24078V8.10571" stroke="black" stroke-width="1.3" stroke-linecap="round" stroke-linejoin="round"/>
</svg>
