<svg width="24.000000" height="24.000000" viewBox="0 0 24 24" fill="none" xmlns="http://www.w3.org/2000/svg" xmlns:xlink="http://www.w3.org/1999/xlink">
	<defs/>
	<path d="M15.6 5C14.2 5 12.87 5.66 12 6.69C11.12 5.66 9.79 5 8.39 5C5.93 5 4 6.96 4 9.49C4 12.57 6.72 15.1 10.83 18.92L12 20L13.16 18.92C17.27 15.1 20 12.57 20 9.49C20 6.96 18.06 5 15.6 5Z" fill="#000000" fill-opacity="1" fill-rule="nonzero"/>
	<path d="M12.96 5.82C12.6 6.07 12.27 6.36 12 6.69C11.72 6.36 11.39 6.07 11.03 5.82C10.26 5.3 9.34 5 8.39 5C5.93 5 4 6.96 4 9.49C4 12.57 6.72 15.1 10.83 18.92L12 20L13.16 18.92C17.27 15.1 20 12.57 20 9.49C20 6.96 18.06 5 15.6 5C14.65 5 13.73 5.3 12.96 5.82ZM12 18.22L12.27 17.96Q14.22 16.16 15.05 15.34Q16.35 14.06 17.1 13.12Q17.93 12.08 18.31 11.21Q18.7 10.33 18.7 9.49Q18.7 8.96 18.55 8.48Q18.5 8.35 18.45 8.21Q18.31 7.87 18.1 7.57Q17.96 7.38 17.79 7.21Q17.56 6.98 17.3 6.8Q17.07 6.65 16.81 6.54Q16.64 6.46 16.46 6.41Q16.05 6.3 15.6 6.3Q15.4 6.3 15.21 6.32Q14.67 6.38 14.16 6.63Q13.73 6.83 13.39 7.13Q13.17 7.32 12.99 7.53L12 8.72L11 7.53Q10.82 7.32 10.6 7.13Q10.26 6.83 9.83 6.63Q9.32 6.38 8.78 6.32Q8.59 6.3 8.39 6.3Q7.94 6.3 7.53 6.41Q7.35 6.47 7.18 6.54Q6.92 6.65 6.69 6.8Q6.43 6.98 6.2 7.21Q6.03 7.38 5.89 7.57Q5.68 7.87 5.54 8.21Q5.49 8.35 5.44 8.48Q5.29 8.96 5.29 9.49Q5.29 10.33 5.68 11.21Q6.06 12.08 6.89 13.12Q7.64 14.06 8.94 15.34Q9.77 16.16 11.72 17.96L12 18.22Z" fill="#000000" fill-opacity="1" fill-rule="evenodd"/>
</svg>