<svg width="64" height="25" viewBox="0 0 64 25" fill="none" xmlns="http://www.w3.org/2000/svg">
    <g clip-path="url(#clip0_3635_6829)">
        <path d="M1.39258 7.84961H5.71258V8.80961H2.41258V11.2096H5.59258V12.1696H2.41258V16.2496H1.39258V7.84961ZM8.39258 7.84961H9.41258V16.2496H8.39258V7.84961ZM12.334 7.84961H13.354V15.2896H16.654V16.2496H12.334V7.84961ZM17.0526 8.80961V7.84961H22.3926V8.80961H20.2326V16.2496H19.2126V8.80961H17.0526ZM24.4707 7.84961H29.2707V8.80961H25.4907V11.2096H29.0307V12.1696H25.4907V15.2896H29.2707V16.2496H24.4707V7.84961ZM32.0684 7.84961H34.3484C34.8924 7.84961 35.3764 7.95361 35.8004 8.16161C36.2324 8.36161 36.5724 8.64961 36.8204 9.02561C37.0764 9.40161 37.2044 9.84961 37.2044 10.3696C37.2044 11.0016 37.0164 11.5296 36.6404 11.9536C36.2724 12.3696 35.7924 12.6496 35.2004 12.7936L37.7084 16.2496H36.4484L34.1084 12.8896H33.0884V16.2496H32.0684V7.84961ZM34.3484 8.74961H33.0884V11.9896H34.3484C34.8924 11.9896 35.3324 11.8496 35.6684 11.5696C36.0124 11.2816 36.1844 10.8816 36.1844 10.3696C36.1844 9.84961 36.0124 9.44961 35.6684 9.16961C35.3324 8.88961 34.8924 8.74961 34.3484 8.74961Z" fill="#161412"/>
        <path d="M50.4326 6.25V18.25" stroke="#161412"/>
        <path d="M55.9326 18.25V6.25" stroke="#161412"/>
        <path d="M61.4326 18.25V6.25" stroke="#161412"/>
        <path d="M48.4326 14.9453H52.4326" stroke="#161412"/>
        <path d="M57.9326 9.49219H53.9326" stroke="#161412"/>
        <path d="M63.4326 12.8086H59.4326" stroke="#161412"/>
    </g>
    <defs>
        <clipPath id="clip0_3635_6829">
            <rect width="63" height="24" fill="white" transform="translate(0.432617 0.25)"/>
        </clipPath>
    </defs>
</svg>
