<svg width="16.000000" height="16.000000" viewBox="0 0 16 16" fill="none" xmlns="http://www.w3.org/2000/svg" xmlns:xlink="http://www.w3.org/1999/xlink">
	<defs/>
	<path d="M8.17 13.1L10.7 13.38L10.7 13.38L11.43 13.46C11.59 13.48 11.72 13.33 11.68 13.17L11.51 12.46L11.51 12.46L10.86 9.81C10.84 9.73 10.87 9.65 10.93 9.59L13.77 6.91C13.88 6.8 13.86 6.62 13.72 6.54L10.85 4.93C10.84 4.92 10.83 4.91 10.81 4.91L8.3 2.64C8.21 2.55 8.08 2.55 7.99 2.64L5.48 4.91C5.47 4.91 5.45 4.92 5.44 4.93L2.4 6.64C2.33 6.67 2.29 6.74 2.28 6.82L2 9.6C2 9.65 2.01 9.71 2.04 9.75L4.45 13.38C4.5 13.45 4.58 13.49 4.67 13.48L8.12 13.1C8.14 13.09 8.15 13.09 8.17 13.1ZM5.03 12.43L8.06 12.1L8.23 12.1L10.45 12.34L9.89 10.05Q9.85 9.89 9.86 9.73Q9.86 9.57 9.91 9.41Q9.95 9.25 10.04 9.11Q10.12 8.98 10.24 8.86L12.32 6.9L10.44 5.85Q10.27 5.77 10.13 5.63L8.15 3.84L6.16 5.63Q6.02 5.77 5.85 5.85L3.24 7.32L3.03 9.42L5.03 12.43Z" fill="#65635F" fill-opacity="1.000000" fill-rule="evenodd"/>
</svg>
