<svg width="25" height="25" viewBox="0 0 25 25" fill="none" xmlns="http://www.w3.org/2000/svg">
<path fill-rule="evenodd" clip-rule="evenodd" d="M10.7637 3.77344C7.07535 3.77344 4.08594 6.76285 4.08594 10.4512C4.08594 14.1395 7.07535 17.1289 10.7637 17.1289C12.2859 17.1289 13.6891 16.6197 14.8122 15.7623L19.5883 20.5383L20.4722 19.6544L15.7315 14.9138C16.7946 13.7311 17.4414 12.1667 17.4414 10.4512C17.4414 6.76285 14.452 3.77344 10.7637 3.77344ZM5.33594 10.4512C5.33594 7.45321 7.76571 5.02344 10.7637 5.02344C13.7616 5.02344 16.1914 7.45321 16.1914 10.4512C16.1914 13.4491 13.7616 15.8789 10.7637 15.8789C7.76571 15.8789 5.33594 13.4491 5.33594 10.4512Z" fill="#161412"/>
</svg>
