<svg width="24.000000" height="24.000000" viewBox="0 0 24 24" fill="none" xmlns="http://www.w3.org/2000/svg" xmlns:xlink="http://www.w3.org/1999/xlink">
	<defs/>
	<circle cx="11.500000" cy="8.248047" r="3.875000" stroke="#161412" stroke-opacity="1.000000" stroke-width="1.250000"/>
	<path d="M19.91 19.45C19.97 19.87 20 20.28 20 20.7L18.75 20.7L4.25 20.7L3 20.7C3 20.28 3.02 19.87 3.08 19.45C3.33 17.52 4.17 15.71 5.48 14.32C7.08 12.62 9.24 11.67 11.5 11.67C13.75 11.67 15.91 12.62 17.51 14.32C18.82 15.71 19.66 17.52 19.91 19.45ZM18.65 19.45Q18.61 19.21 18.56 18.96Q18.42 18.32 18.18 17.7Q17.81 16.75 17.23 15.94Q16.94 15.54 16.6 15.17Q15.92 14.46 15.11 13.96Q14.7 13.7 14.24 13.5Q13.5 13.17 12.72 13.03Q12.12 12.92 11.5 12.92Q10.87 12.92 10.27 13.03Q9.49 13.17 8.75 13.5Q8.29 13.7 7.88 13.96Q7.07 14.46 6.39 15.17Q6.05 15.54 5.76 15.94Q5.18 16.75 4.81 17.7Q4.57 18.32 4.43 18.96Q4.38 19.21 4.34 19.45L18.65 19.45Z" fill="#161412" fill-opacity="1.000000" fill-rule="evenodd"/>
</svg>
