<svg width="23.263184" height="30.000000" viewBox="0 0 23.2632 30" fill="none" xmlns="http://www.w3.org/2000/svg" xmlns:xlink="http://www.w3.org/1999/xlink">
	<defs/>
	<path id="Vector" d="M9.74 8.02C9.53 7.59 9.33 7.15 9.14 6.71C9.13 6.68 9.11 6.66 9.1 6.63C8.99 6.4 8.88 6.15 9.2 6.06L10.11 5.8C10.74 5.62 11.37 5.44 12 5.26C12.41 5.15 12.82 5.03 13.23 4.91C14.3 4.6 15.37 4.3 16.44 4.01C16.59 3.97 16.61 3.9 16.58 3.76C16.5 3.49 16.43 3.21 16.36 2.93C16.34 2.81 16.28 2.76 16.17 2.75C16 2.72 15.83 2.69 15.66 2.66C15.49 2.63 15.32 2.59 15.15 2.57C14.92 2.53 14.91 2.04 15.16 2C15.44 1.96 15.72 1.91 16.05 1.86C15.94 1.6 15.83 1.35 15.72 1.1C15.6 0.86 15.49 0.61 15.38 0.35C15.52 0.29 15.65 0.22 15.78 0.16C15.87 0.11 15.95 0.07 16.04 0.02C16.55 1.25 17.05 2.45 17.56 3.7C17.6 3.63 17.65 3.56 17.69 3.49L17.69 3.49C17.95 3.11 18.19 2.71 18.43 2.32C18.66 1.95 18.89 1.57 19.13 1.2C19.24 1.04 19.41 0.87 19.58 0.82C20.59 0.47 21.6 0.13 22.67 0.01C22.95 -0.03 22.99 -0.01 22.99 0.29C23.02 0.96 22.77 1.58 22.39 2.11C21.85 2.89 21.14 3.46 20.34 3.9C19.77 4.2 19.19 4.47 18.61 4.74L18.54 4.77C18.37 4.85 18.21 4.92 18.04 5C17.88 5.08 17.8 5.15 17.84 5.37C18.04 6.33 18.22 7.29 18.41 8.26C18.45 8.45 18.48 8.65 18.52 8.84C18.59 9.23 18.67 9.61 18.75 10C18.92 10.85 19.09 11.71 19.21 12.56C19.5 14.58 19.75 16.59 19.97 18.62C20.05 19.3 20.08 19.99 20.11 20.68C20.11 20.83 20.12 20.99 20.13 21.14C20.2 22.42 20.25 23.7 20.3 24.98L20.31 25.06L20.4 27.15L20.5 29.23L20.52 29.73C20.53 29.83 20.49 29.89 20.38 29.89C20.1 29.9 19.81 29.92 19.53 29.93C19.39 29.94 19.39 29.85 19.38 29.75L19.37 29.67C19.3 28.73 19.22 27.77 19.12 26.82C19.09 26.51 19.01 26.2 18.93 25.89L18.93 25.86L18.9 25.76L17.89 21.62C17.83 21.39 17.78 21.15 17.72 20.91L17.72 20.91L17.7 20.82C17.65 20.62 17.6 20.41 17.54 20.2C17.46 20.26 17.39 20.32 17.31 20.38C17.14 20.51 16.98 20.63 16.8 20.74C16.45 20.94 16.33 21.23 16.4 21.65C16.42 21.83 16.42 22.02 16.42 22.21C16.42 22.36 16.42 22.52 16.43 22.67C16.49 23.16 16.56 23.64 16.65 24.12C16.8 24.94 16.95 25.75 17.14 26.56C17.31 27.32 17.5 28.07 17.7 28.82L17.7 28.82C17.76 29.05 17.81 29.27 17.87 29.5C17.88 29.54 17.89 29.58 17.9 29.61C17.98 29.8 17.9 29.84 17.73 29.85C17.47 29.87 17.22 29.9 16.96 29.93C16.83 29.95 16.78 29.91 16.73 29.78C16.37 28.7 16.01 27.62 15.65 26.54C15.56 26.3 15.48 26.06 15.4 25.81C15.19 25.22 14.99 24.64 14.81 24.04C14.66 23.54 14.53 23.03 14.41 22.53L14.41 22.53L14.4 22.53L14.4 22.52C14.38 22.41 14.35 22.3 14.32 22.18C14.29 22.07 14.26 22.02 14.14 22.06C13.43 22.28 12.72 22.46 12 22.6C11.64 22.67 11.29 22.71 10.93 22.76C10.62 22.8 10.3 22.84 9.98 22.89C9.91 22.9 9.81 22.96 9.77 23.03C8.84 24.65 7.55 25.86 5.87 26.58C5.78 26.62 5.74 26.67 5.74 26.76C5.74 26.78 5.74 26.8 5.75 26.83C5.9 27.8 6.05 28.76 6.19 29.73C6.19 29.77 6.2 29.81 6.2 29.85C6.2 29.89 6.2 29.92 6.21 29.97C6.09 29.97 5.97 29.98 5.86 29.98C5.63 29.99 5.41 29.99 5.19 29.99C5.15 29.99 5.1 29.9 5.09 29.84L5.03 29.55C4.82 28.53 4.62 27.53 4.43 26.51C4.42 26.49 4.42 26.47 4.42 26.44C4.42 26.34 4.45 26.23 4.5 26.16C4.61 26.01 4.72 25.86 4.82 25.72C5.05 25.41 5.27 25.1 5.5 24.8C5.89 24.27 6.28 23.75 6.66 23.21C6.69 23.17 6.73 23.12 6.78 23.05C6.8 23.02 6.82 22.99 6.85 22.95L6.85 22.95L6.85 22.95C6.75 22.95 6.66 22.94 6.58 22.94C6.39 22.93 6.21 22.92 6.03 22.9C5.75 22.86 5.59 22.96 5.42 23.21C4.86 24.02 4.18 24.68 3.35 25.16C3.13 25.28 2.91 25.37 2.67 25.48C2.59 25.51 2.5 25.55 2.41 25.59L2.41 25.59C2.52 26.04 2.63 26.49 2.75 26.94L2.75 26.95L2.75 26.95L2.75 26.96L2.8 27.15L2.8 27.15C3.02 28.05 3.25 28.96 3.47 29.86C3.4 29.86 3.33 29.86 3.27 29.86L3.19 29.86C2.91 29.86 2.65 29.87 2.39 29.85C2.36 29.85 2.31 29.75 2.29 29.7C2.18 29.32 2.07 28.93 1.95 28.55C1.65 27.53 1.35 26.51 1.02 25.5C1 25.44 1 25.39 1 25.34C1 25.26 1.02 25.18 1.08 25.1C1.79 24.08 2.5 23.05 3.21 22.01L3.21 22.01L3.21 22.01C3.25 21.95 3.27 21.9 3.27 21.84C3.27 21.8 3.26 21.75 3.24 21.7C2.74 20.4 2.29 19.09 2.04 17.71C2.04 17.68 2.04 17.66 2.03 17.63C2.03 17.57 2.02 17.5 1.99 17.45L1.99 17.43C1.99 17.42 1.99 17.42 1.98 17.42L1.97 17.41C1.97 17.41 1.97 17.41 1.96 17.41C1.96 17.4 1.95 17.4 1.95 17.4C1.76 17.7 1.58 18.01 1.37 18.33C1.34 18.28 1.31 18.23 1.29 18.17C1.19 17.95 1.2 17.73 1.24 17.51C1.27 17.34 1.32 17.18 1.39 17.04C1.51 16.79 1.69 16.56 1.87 16.4C1.9 16.37 1.93 16.35 1.96 16.32C2.63 15.79 3.3 15.26 3.98 14.73C4.45 14.35 4.93 13.98 5.4 13.61C5.46 13.56 5.53 13.51 5.59 13.46L5.72 13.35C6.34 12.85 6.97 12.34 7.74 12.13C7.86 12.1 7.97 12.07 8.1 12.05C9.12 11.91 10.13 11.75 11.15 11.6C11.86 11.49 12.57 11.38 13.29 11.28C13.51 11.24 13.62 11.16 13.7 10.94C13.91 10.3 14.14 9.67 14.36 9.03L14.36 9.03C14.44 8.8 14.53 8.57 14.61 8.34C14.64 8.21 14.56 8.2 14.47 8.19C14.45 8.19 14.44 8.19 14.42 8.19C13.68 8.18 12.94 8.17 12.19 8.17C11.45 8.16 10.71 8.16 9.97 8.15C9.89 8.15 9.77 8.09 9.74 8.02ZM8.56 14.59L8.56 14.61L9.09 14.61C9.26 14.61 9.33 14.52 9.34 14.33C9.35 14.14 9.24 14.14 9.13 14.13L9.11 14.13C9.06 14.12 9 14.12 8.95 14.11C8.72 14.09 8.49 14.07 8.26 14.07C7.85 14.07 7.45 14.08 7.05 14.12C6.98 14.13 6.93 14.21 6.87 14.29C6.86 14.31 6.84 14.34 6.82 14.36C6.81 14.38 6.86 14.47 6.89 14.47C7.03 14.52 7.16 14.57 7.3 14.58C7.62 14.59 7.94 14.59 8.25 14.59C8.36 14.59 8.46 14.59 8.56 14.59ZM5.76 16.37C5.87 16.33 5.97 16.28 6.07 16.23C6.23 16.14 6.4 16.04 6.57 15.94C6.81 15.8 7.06 15.65 7.31 15.52C7.46 15.44 7.55 15.35 7.49 15.18C7.42 15 7.26 15.04 7.13 15.1C6.58 15.41 6.03 15.71 5.5 16.03C5.42 16.08 5.38 16.22 5.36 16.32C5.36 16.34 5.43 16.38 5.5 16.42C5.53 16.43 5.55 16.44 5.57 16.46C5.64 16.42 5.7 16.4 5.76 16.37ZM7.82 16.77C7.74 16.76 7.67 16.75 7.6 16.76C7.47 16.77 7.35 16.78 7.22 16.79C6.85 16.82 6.47 16.85 6.1 16.89C5.99 16.9 5.88 16.98 5.79 17.04C5.76 17.07 5.78 17.23 5.82 17.25C5.93 17.29 6.07 17.33 6.19 17.32C6.43 17.3 6.67 17.27 6.91 17.25C7.15 17.22 7.39 17.19 7.63 17.17C7.87 17.15 7.93 17.08 7.91 16.78C7.88 16.77 7.85 16.77 7.82 16.77ZM7.66 15.9C7.69 15.9 7.73 15.9 7.76 15.9C7.82 15.9 7.88 15.89 7.93 15.88L9.29 15.41C9.46 15.35 9.63 15.28 9.8 15.21C9.83 15.2 9.85 15.15 9.87 15.11C9.87 15.09 9.88 15.07 9.89 15.05C9.84 15.03 9.79 15 9.74 14.99C9.71 14.98 9.69 14.99 9.67 15C9.66 15 9.65 15.01 9.64 15.01C9.5 15.06 9.36 15.11 9.22 15.16C9.04 15.21 8.87 15.27 8.7 15.34C8.47 15.42 8.24 15.5 8.01 15.58C7.87 15.62 7.71 15.67 7.66 15.9ZM7.95 13.54C8 13.53 8.05 13.51 8.1 13.49L8.26 13.41C8.55 13.28 8.83 13.14 9.12 12.99C9.16 12.96 9.19 12.9 9.21 12.84C9.23 12.81 9.25 12.77 9.27 12.74C9.24 12.74 9.21 12.73 9.19 12.72C9.12 12.7 9.06 12.68 9.01 12.7C8.79 12.78 8.57 12.88 8.36 12.98L8.26 13.03C8.11 13.1 7.95 13.19 7.82 13.29C7.77 13.33 7.74 13.42 7.74 13.49C7.72 13.5 7.77 13.53 7.81 13.55C7.82 13.56 7.84 13.57 7.85 13.58C7.88 13.56 7.92 13.55 7.95 13.54ZM10.07 17.43C10.12 17.48 10.16 17.51 10.2 17.52C10.38 17.53 10.56 17.53 10.74 17.53C10.83 17.54 10.93 17.54 11.02 17.54C11.16 17.54 11.3 17.55 11.43 17.53C11.48 17.52 11.52 17.48 11.57 17.43C11.59 17.41 11.6 17.4 11.62 17.38C11.61 17.37 11.59 17.35 11.58 17.33C11.54 17.29 11.49 17.24 11.45 17.24C11.04 17.22 10.63 17.22 10.21 17.22C10.16 17.22 10.12 17.27 10.07 17.31C10.05 17.33 10.02 17.35 10 17.37C10.03 17.39 10.05 17.41 10.07 17.43ZM5.82 15.22C5.47 15.23 4.23 15.71 4.01 15.89C3.99 15.92 3.97 15.95 3.94 15.99C3.93 16.01 3.92 16.04 3.9 16.06C3.93 16.06 3.96 16.06 3.98 16.06C4.01 16.06 4.04 16.06 4.06 16.06C4.19 16.01 4.31 15.96 4.44 15.91L4.44 15.91C4.85 15.75 5.25 15.58 5.66 15.41C5.7 15.4 5.72 15.36 5.76 15.3C5.78 15.27 5.79 15.25 5.82 15.22ZM7.79 18.21L7.79 18.22C7.84 18.22 7.88 18.22 7.93 18.22C8.06 18.23 8.19 18.23 8.33 18.21C8.36 18.21 8.4 18.18 8.43 18.14C8.45 18.12 8.47 18.1 8.49 18.09C8.47 18.08 8.45 18.06 8.44 18.04C8.41 18 8.38 17.97 8.35 17.97C7.99 17.95 7.63 17.94 7.26 17.94C7.22 17.94 7.18 17.98 7.14 18.01C7.12 18.03 7.1 18.04 7.08 18.06C7.1 18.07 7.12 18.09 7.14 18.11C7.18 18.15 7.22 18.19 7.27 18.2C7.4 18.22 7.53 18.22 7.66 18.22C7.7 18.22 7.75 18.21 7.79 18.21ZM10.87 14.17L10.91 14.16C11.14 14.06 11.37 13.97 11.59 13.86C11.62 13.85 11.65 13.74 11.63 13.71C11.61 13.66 11.52 13.62 11.48 13.63C11.31 13.68 11.14 13.75 10.97 13.81C10.83 13.87 10.7 13.94 10.57 14.01C10.53 14.04 10.51 14.13 10.51 14.18C10.51 14.21 10.53 14.22 10.56 14.25C10.57 14.26 10.59 14.27 10.6 14.28C10.69 14.25 10.78 14.21 10.87 14.17ZM9.7 16.43C9.69 16.42 9.68 16.4 9.67 16.38C9.64 16.31 9.53 16.31 9.48 16.36C9.25 16.6 9.03 16.83 8.83 17.07C8.8 17.1 8.79 17.16 8.79 17.22C8.79 17.25 8.79 17.28 8.78 17.31C8.8 17.3 8.83 17.29 8.85 17.29C8.91 17.28 8.96 17.26 9 17.22C9.15 17.08 9.29 16.92 9.42 16.76C9.49 16.68 9.56 16.61 9.63 16.53C9.66 16.52 9.67 16.5 9.68 16.47C9.68 16.46 9.69 16.44 9.7 16.43ZM4.2 17.64C4.21 17.65 4.22 17.66 4.23 17.67C4.24 17.68 4.25 17.69 4.26 17.7C4.49 17.57 4.71 17.44 4.94 17.3C4.96 17.28 4.98 17.2 4.96 17.17C4.95 17.15 4.88 17.13 4.85 17.15C4.64 17.26 4.45 17.37 4.26 17.5C4.23 17.51 4.22 17.56 4.21 17.6C4.21 17.62 4.2 17.63 4.2 17.64ZM13.19 16.69C13.21 16.87 13.29 16.94 13.4 16.86C13.62 16.69 13.82 16.51 14.02 16.32C14.26 16.1 14.51 15.87 14.74 15.64C14.85 15.54 14.86 15.42 14.76 15.3C14.67 15.19 14.6 15.25 14.53 15.31C14.52 15.32 14.51 15.32 14.5 15.33C14.42 15.39 14.34 15.45 14.27 15.51C13.97 15.81 13.65 16.12 13.36 16.43C13.3 16.48 13.27 16.54 13.23 16.61C13.22 16.64 13.2 16.67 13.19 16.69ZM12.52 13.49C12.54 13.51 12.55 13.53 12.57 13.55L12.58 13.57C12.6 13.57 12.62 13.58 12.63 13.58C12.66 13.58 12.68 13.58 12.69 13.58C12.77 13.56 12.84 13.53 12.91 13.51C13.07 13.45 13.23 13.4 13.39 13.33C13.75 13.18 14.11 13.03 14.46 12.86C14.49 12.84 14.51 12.8 14.54 12.75C14.54 12.73 14.55 12.71 14.56 12.7C14.54 12.69 14.52 12.69 14.5 12.68C14.46 12.67 14.42 12.66 14.39 12.67C13.83 12.9 13.27 13.14 12.72 13.37C12.66 13.39 12.62 13.42 12.57 13.45C12.56 13.47 12.54 13.48 12.52 13.49ZM13.98 14.09C14.17 14.06 14.35 14.03 14.52 14C14.67 13.98 14.81 13.95 14.96 13.93C15.08 13.91 15.13 13.84 15.12 13.72C15.12 13.59 15.04 13.54 14.93 13.56C14.87 13.57 14.81 13.57 14.75 13.58C14.49 13.62 14.22 13.66 13.96 13.72C13.9 13.74 13.83 13.88 13.83 13.96C13.82 13.99 13.88 14.03 13.93 14.06C13.95 14.07 13.96 14.08 13.98 14.09ZM12.55 15.44C12.56 15.44 12.58 15.43 12.59 15.43C12.62 15.43 12.65 15.42 12.68 15.41C13.11 15.21 13.54 14.99 13.96 14.78C13.99 14.76 14.02 14.71 14.05 14.66C14.06 14.64 14.07 14.62 14.08 14.6C13.73 14.6 12.61 15.22 12.55 15.44ZM10.19 13.42C10.08 13.45 9.92 13.5 9.84 13.27C10.33 12.94 10.88 12.77 11.42 12.6C11.61 12.54 11.8 12.48 11.99 12.41C12.3 12.3 12.63 12.22 12.95 12.16C13.02 12.5 13.02 12.5 12.74 12.58L12.72 12.59L11.62 12.95C11.53 12.99 11.44 13.02 11.35 13.05L11.35 13.05C10.97 13.18 10.58 13.31 10.19 13.42ZM10.7 15.29C10.74 15.28 10.77 15.27 10.8 15.27C10.95 15.24 11.1 15.17 11.24 15.1C11.29 15.08 11.33 15.06 11.38 15.04L12.14 14.71C12.27 14.66 12.35 14.6 12.29 14.45C12.22 14.29 12.1 14.34 12 14.38L10.76 14.9C10.7 14.92 10.63 14.97 10.59 15.03C10.56 15.08 10.54 15.16 10.56 15.21C10.57 15.24 10.61 15.25 10.65 15.27C10.67 15.27 10.69 15.28 10.7 15.29ZM10.87 16.33C10.73 16.33 10.58 16.34 10.56 16.13C10.53 15.97 10.69 15.81 10.89 15.81L12 15.84L12.01 15.84C12.22 15.85 12.43 15.86 12.41 16.11C12.39 16.34 12.25 16.34 12.08 16.33C12.05 16.33 12.02 16.33 12 16.33L10.87 16.33ZM13.76 5.52C13.72 5.51 13.69 5.51 13.68 5.51C13.66 5.51 13.64 5.51 13.62 5.52C13.05 5.71 12.6 6.08 12.27 6.61C12.24 6.64 12.27 6.74 12.3 6.78C12.67 7.23 13.16 7.48 13.71 7.56C13.76 7.57 13.81 7.56 13.87 7.56C13.9 7.56 13.94 7.56 13.98 7.56C13.33 6.93 13.36 6.25 13.76 5.52ZM16.05 6.16C15.61 6.84 15.07 7.34 14.28 7.51C14.85 6.81 14.73 6.14 14.18 5.45C14.92 5.45 15.5 5.74 16.05 6.16Z" fill="#000000" fill-opacity="1.000000" fill-rule="evenodd"/>
</svg>
